PathFileType	4	(X/Y/Z)	41_2_22_p1_0-448_filt_butterworth.trc
DataRate	CameraRate	NumFrames	NumMarkers	Units	OrigDataRate	OrigDataStartFrame	OrigNumFrames
59.0	59.0	5	27	m	59.0	336	448
Frame#	Time	RHip			RKnee			RAnkle			RBigToe			RSmallToe			RHeel			LHip			LKnee			LAnkle			LBigToe			LSmallToe			LHeel			Neck			Head			Nose			RShoulder			RElbow			RWrist			RThumb			RIndex			RPinky			LShoulder			LElbow			LWrist			LThumb			LIndex			LPinky			
		X1	Y1	Z1	X2	Y2	Z2	X3	Y3	Z3	X4	Y4	Z4	X5	Y5	Z5	X6	Y6	Z6	X7	Y7	Z7	X8	Y8	Z8	X9	Y9	Z9	X10	Y10	Z10	X11	Y11	Z11	X12	Y12	Z12	X13	Y13	Z13	X14	Y14	Z14	X15	Y15	Z15	X16	Y16	Z16	X17	Y17	Z17	X18	Y18	Z18	X19	Y19	Z19	X20	Y20	Z20	X21	Y21	Z21	X22	Y22	Z22	X23	Y23	Z23	X24	Y24	Z24	X25	Y25	Z25	X26	Y26	Z26	X27	Y27	Z27	
336	5.694915254237288	0.35114720262648125	0.9811610163887454	0.5214093547899692	0.3358978211632832	0.5270184107397249	0.5934166245307722	0.34809322376636265	0.08335606028340133	0.7032078698740992	0.3431662363388003	0.0805674641327391	0.5061847229738371	0.4010145883238114	0.05379999897685152	0.5653082252702656	0.3300430096996163	0.0022958781028189976	0.7670906550694335	0.15407797325049893	0.9857202439192614	0.5284373975038306	0.13209266172955766	0.5412995667474526	0.5983275142255834	0.09651386982466835	0.0785703126650929	0.72714881539366	0.14633130018188328	0.0679785471931049	0.569468144733096	0.08286852302946326	0.064432762108689	0.5803734781352488	0.10510065569722318	0.010557413984392895	0.7971882429845092	0.2797634788973319	1.491918142316109	0.5411371644403837	0.288267640171038	1.752660116178192	0.4344853325097229	0.2605245317721683	1.593224617636751	0.37346052454885365	0.406694106007609	1.4190030092027655	0.540839945863612	0.5188705482600131	1.1528457421628526	0.5514399360847941	0.49953273667840414	0.9216683180786914	0.4368445798124089	0.4083796688540299	0.8321281769057285	0.3960807586436264	0.4195900620316585	0.8047323528288811	0.36797992178199546	0.46355504501472655	0.7808868638952836	0.42378979657441707	0.12215035366986268	1.4129542144863336	0.5867624040351765	0.05385799168555493	1.1614949787533162	0.6057021409579885	-0.03107966707589499	0.9339829230642868	0.5298313025357785	-0.0015171356158528303	0.8202182657493322	0.4647785421926502	-0.03527953715560897	0.7992937595293855	0.46141197018047647	-0.04963889525879934	0.7976660978515527	0.5068344995874565	
337	5.711864406779661	0.3519634284765095	0.9821666277032255	0.5180353158926914	0.3360731368971565	0.5271664568704684	0.5941370800756244	0.34809275509782417	0.08365611278503723	0.7034902101662197	0.34163621599494964	0.08006776890789398	0.5070992459764858	0.401742219017486	0.054311326047695965	0.5658144150616305	0.3305334705064268	0.002168620627611046	0.7688858476153039	0.15458205830051228	0.9856485343720495	0.5294414763653099	0.1329714949179798	0.5407325775692666	0.6004668572145211	0.09701056043110874	0.07869746860994216	0.7273607291441058	0.14633520738785388	0.06774792475417818	0.5700805379430472	0.0836657200932282	0.06429548075781048	0.5807042603143564	0.10519082012444056	0.010226761303504039	0.7980219088690182	0.27933093526302627	1.4934588078777087	0.5410455672799913	0.28838825953087643	1.754661406222213	0.44062417379996455	0.25944715440289234	1.5967998348524592	0.37576885150213024	0.40496362709537004	1.4174352271539492	0.5407264760781473	0.5118529464435322	1.1493616579825294	0.5512443684755344	0.4865498754393101	0.9159026482977902	0.4429768049455894	0.3941525953451751	0.8288822176013829	0.4094585558151666	0.40342965450248297	0.7993278169241962	0.38767429548633064	0.44690059381942204	0.7745587823945801	0.43448257004812496	0.11969127081980868	1.4120111218788722	0.5900565279369664	0.06288943394644105	1.1599268689291329	0.5959295335978013	-0.020349241475693548	0.9257234219994814	0.5338043560614653	0.017157108167233193	0.8110723278938289	0.46860294445717027	-0.01687196125117068	0.7871265053556552	0.4701327312724932	-0.03496453924799141	0.7837712813352509	0.5114215475173728	
338	5.728813559322034	0.3523147985136229	0.9833114411333338	0.5145322825709624	0.336178094516211	0.527125143556757	0.5945528710693547	0.34812437023557286	0.08359310003732168	0.7037311578687195	0.3407257108438347	0.07920478105628728	0.5088506730746247	0.40269211682964445	0.05457741858273085	0.5663172879755346	0.33100232512356054	0.0021510890411969713	0.7704645770645412	0.15515452615717748	0.9856649934649524	0.5308433003908037	0.13401847517957363	0.540172524465037	0.6028434858788141	0.097597952844161	0.07868977987304863	0.7274536144756938	0.14600308961474406	0.06683905924627706	0.5717824237996572	0.08447554717702233	0.06431227142297231	0.5809813914460257	0.10538291420561098	0.009799685462459996	0.7989396158350929	0.2785499030237931	1.4942021732714084	0.5409056489177128	0.28836583667216464	1.7564587914160288	0.4468347663389826	0.25850189124869727	1.5995171769867464	0.3775968411625722	0.403424546593684	1.4151087836798557	0.5404267570009983	0.5051135493640653	1.1459694317185538	0.5495431685050862	0.47726322725130954	0.9100862310096441	0.44831919995594294	0.38232935606679164	0.8267132910032419	0.4195708452712597	0.39009830381026456	0.7936945515879332	0.40661951159200704	0.43169384709997904	0.7681414106487143	0.4451371888337568	0.11768027812314565	1.4109492074709031	0.5922104470393698	0.07166807887601537	1.1588502195661528	0.5874249050769701	-0.010206674376219235	0.9174883985274849	0.5367206937953504	0.03326314244243412	0.8051066035395545	0.46984968751423667	0.0012439546013812823	0.7800166245696607	0.4734758135674938	-0.021258017523525297	0.7719300305464974	0.5151698908245479	
339	5.745762711864407	0.35218718477293476	0.984552078230548	0.5111098064426134	0.3361955720496736	0.5270142202895839	0.594633888222619	0.3481920732402605	0.08318511396323294	0.7039516015363487	0.34055803666289597	0.07805453932143191	0.51129375610376	0.4037344914129684	0.05459447857802618	0.5667979645868768	0.33144443720773026	0.0021320178540645066	0.771795304562855	0.15571921664303448	0.9858532833115523	0.5322460328627748	0.13521638448780954	0.5394768680409181	0.6055088411903141	0.09822818662338406	0.07843413202529936	0.727591917703205	0.14537591861808014	0.06529117489866881	0.5741804309448943	0.08518288104144939	0.0643840400148637	0.5811598654209388	0.10565531615855142	0.009351762128719614	0.7999667537235937	0.27749592403702544	1.494111497037876	0.5407733808795535	0.28790010228851143	1.757850503211188	0.45327755635128086	0.25786169703129047	1.6015319608461422	0.3786026354469589	0.40197248053999723	1.4122166147764401	0.539983817532826	0.49886645978929145	1.1428624927344042	0.545727127476599	0.47125712963896194	0.9045333883148319	0.45176947262789885	0.3717565573933962	0.8252617504261358	0.4257672846562674	0.37909109211590164	0.7879639334569302	0.422512168206514	0.41820927025759014	0.761808065342107	0.4551558343284474	0.1163191890985362	1.409868940637061	0.5929561622639712	0.07908976263684551	1.157638929445469	0.5810692965846839	0.00019290317277788498	0.9098860726081303	0.5365539318387084	0.046238964075896186	0.8023645506336143	0.4699664428436421	0.01801238383398444	0.7780469406120206	0.4715399599885524	-0.008264241461836042	0.7643454534418443	0.5156285720202017	
340	5.762711864406779	0.3516258974406485	0.9857897165247248	0.5079055205229326	0.3361515844764169	0.5268924156122382	0.5944231002624958	0.3482873448565024	0.08259272278713659	0.7041561747946871	0.34110325227746	0.0767448608556243	0.514096653615915	0.4047211367763816	0.054463558908840935	0.567198932136428	0.33183015233211305	0.0020602615993104527	0.7728780663721141	0.15623855346174867	0.9862111377318342	0.5333234277900332	0.13647308135818745	0.5385126171691677	0.6084997631860564	0.09891698672743006	0.07790259267609491	0.72797921234879	0.14469937204114158	0.06355702666341467	0.5763964894211642	0.08578170131748747	0.06426173660864684	0.5812385056665876	0.10598000637422395	0.008869807827253062	0.8011141495226791	0.2762556684648429	1.4932946129039892	0.5407267166809702	0.28659600208104336	1.7587254738941003	0.46027215661114596	0.257670283177132	1.6029855317932145	0.37862478243473013	0.40050068520757093	1.4091310976143947	0.5395055746964208	0.4931621225100409	1.1399705089715928	0.5402263013737784	0.46694577922792363	0.8994643284013086	0.45332900086661854	0.36179466878912186	0.8241451516261559	0.42760029647933934	0.369829791986326	0.7824543642216468	0.4342068761090816	0.40686650943163516	0.7558375840846524	0.46414784325879543	0.1154261128152207	1.4088589255194361	0.5921029771375343	0.08440883699579754	1.1560132116560835	0.5773627817619106	0.010997756295776498	0.9037802226578465	0.5318168369310446	0.05650149957799292	0.8017101413961953	0.4706463920114221	0.032003154902402756	0.779866412111569	0.46563206969662707	0.004539857697625725	0.7620792240910902	0.5115019474730864	
